<?xml version="1.0" encoding="UTF-8"?>
<svg
	width="512"
	height="512"
	viewBox="0 0 512 512"
	fill="none"
	xmlns="http://www.w3.org/2000/svg"
>
	<defs>
		<linearGradient id="icon-bg" x1="58" y1="38" x2="454" y2="474" gradientUnits="userSpaceOnUse">
			<stop offset="0" stop-color="#4F6CF7" />
			<stop offset="0.52" stop-color="#3858E9" />
			<stop offset="1" stop-color="#172A8F" />
		</linearGradient>
		<linearGradient id="cube" x1="152" y1="100" x2="366" y2="344" gradientUnits="userSpaceOnUse">
			<stop offset="0" stop-color="#FFFFFF" />
			<stop offset="1" stop-color="#DDE6FF" />
		</linearGradient>
		<filter id="soft-shadow" x="-30%" y="-30%" width="160%" height="170%">
			<feDropShadow dx="0" dy="18" stdDeviation="22" flood-color="#071451" flood-opacity="0.28" />
		</filter>
	</defs>

	<rect width="512" height="512" rx="104" fill="url(#icon-bg)" />
	<path
		d="M79 311C93 267 157 235 236 230C329 224 422 255 436 311C450 367 379 419 266 421C154 422 63 366 79 311Z"
		fill="#0A1647"
		opacity="0.16"
	/>
	<g stroke="#FFFFFF" stroke-width="24" stroke-linecap="round" stroke-linejoin="round" opacity="0.9">
		<path d="M368 392C426 375 466 345 466 310C466 257 375 214 263 214C150 214 59 257 59 310C59 362 147 405 257 406" />
		<path d="M238 375L280 419L207 444Z" fill="#3858E9" />
	</g>
	<g filter="url(#soft-shadow)">
		<path d="M256 74L376 143L256 212L136 143L256 74Z" fill="url(#cube)" />
		<path d="M136 143L256 212V350L136 281V143Z" fill="#F9FBFF" />
		<path d="M376 143L256 212V350L376 281V143Z" fill="#E7EEFF" />
		<path d="M256 74L376 143L256 212L136 143L256 74Z" stroke="#FFFFFF" stroke-width="18" stroke-linejoin="round" />
		<path d="M136 143V281L256 350M376 143V281L256 350V212" stroke="#FFFFFF" stroke-width="18" stroke-linejoin="round" />
	</g>
</svg>
